<svg xmlns="http://www.w3.org/2000/svg" viewBox="0 0 200 220">
<path d="M160 22 L162.0 28.0 L168 30 L162.0 32.0 L160 38 L158.0 32.0 L152 30 L158.0 28.0 Z" fill="#e6b22a"></path><path d="M40 121 L41.75 126.25 L47 128 L41.75 129.75 L40 135 L38.25 129.75 L33 128 L38.25 126.25 Z" fill="#e6b22a"></path><path d="M34 39 L36.25 45.75 L43 48 L36.25 50.25 L34 57 L31.75 50.25 L25 48 L31.75 45.75 Z" fill="#e6b22a"></path><path d="M166 97 L167.75 102.25 L173 104 L167.75 105.75 L166 111 L164.25 105.75 L159 104 L164.25 102.25 Z" fill="#e6b22a"></path><circle cx="56" cy="86" r="2.5" fill="#e6b22a"></circle><circle cx="150" cy="70" r="2.5" fill="#e6b22a"></circle>
<rect x="64" y="92" width="72" height="110" rx="34" fill="#7a4cc2"></rect>
<polygon points="86,94 100,124 114,94" fill="#2b2420"></polygon>
<path d="M86 94 L80 150 M114 94 L120 150" stroke="#f2c335" stroke-width="3"></path>
<circle cx="76" cy="120" r="1.8" fill="#fff" opacity=".8"></circle><circle cx="124" cy="130" r="1.8" fill="#fff" opacity=".8"></circle><circle cx="82" cy="170" r="1.8" fill="#fff" opacity=".8"></circle><circle cx="118" cy="178" r="1.8" fill="#fff" opacity=".8"></circle><circle cx="96" cy="190" r="1.8" fill="#fff" opacity=".8"></circle><circle cx="106" cy="150" r="1.8" fill="#fff" opacity=".8"></circle><circle cx="72" cy="148" r="1.8" fill="#fff" opacity=".8"></circle><circle cx="128" cy="160" r="1.8" fill="#fff" opacity=".8"></circle>
<g transform="translate(138 150) rotate(20)"><rect x="-3" y="0" width="6" height="30" rx="3" fill="#3a3f4a"></rect><circle cx="0" cy="-4" r="8" fill="#c9cdd1"></circle><path d="M-6 -6 L6 -6 M-6 -2 L6 -2" stroke="#8d9399" stroke-width="1"></path></g>
<circle cx="100" cy="64" r="30" fill="#efe3d6"></circle>
<path d="M68 66 Q64 30 100 28 Q138 28 132 60 Q124 40 104 44 Q84 46 78 60 Z" fill="#f59ab5"></path>
<path d="M104 28 Q130 18 136 38" stroke="#f59ab5" stroke-width="8" fill="none" stroke-linecap="round"></path>
<path d="M72 75 L73.25 78.75 L77 80 L73.25 81.25 L72 85 L70.75 81.25 L67 80 L70.75 78.75 Z" fill="#f2c335"></path><path d="M128 75 L129.25 78.75 L133 80 L129.25 81.25 L128 85 L126.75 81.25 L123 80 L126.75 78.75 Z" fill="#f2c335"></path>
</svg>
